<?xml version="1.0" encoding="utf-8" ?>
<svg xmlns="http://www.w3.org/2000/svg" xmlns:xlink="http://www.w3.org/1999/xlink" width="1024" height="1024">
	<path fill="#E21111" d="M230.764 665.393C245.138 677.397 261.492 687.482 276.739 698.372C307.579 720.4 338.354 742.817 370.304 763.192L367.017 770.275C362.747 781.169 358.728 794.782 352.622 804.676L349.535 811.207C338.44 805.627 328.538 796.983 318.517 789.705L269.975 754.843Q252.638 742.501 235.137 730.393C227.553 725.114 216.592 718.93 210.646 712.022Q220.454 688.599 230.764 665.393Z"/>
	<path fill="#FEFEFE" d="M230.764 665.393C245.138 677.397 261.492 687.482 276.739 698.372C307.579 720.4 338.354 742.817 370.304 763.192L367.017 770.275L234.506 676.698C230.146 688.235 224.961 699.35 219.34 710.324C250.045 731.263 280.042 753.394 310.356 774.907Q323.629 784.386 337.042 793.665C342.162 797.194 348.006 800.546 352.622 804.676L349.535 811.207C338.44 805.627 328.538 796.983 318.517 789.705L269.975 754.843Q252.638 742.501 235.137 730.393C227.553 725.114 216.592 718.93 210.646 712.022Q220.454 688.599 230.764 665.393Z"/>
	<path fill="#E21111" d="M792.265 665.122C797.236 672.462 800.488 681.174 804.35 689.128C808.068 696.785 812.88 704.519 815.318 712.676C814.749 713.487 814.247 714.012 813.46 714.614Q764.405 748.141 716.008 782.612C702.235 792.423 688.779 803.196 674.602 812.388L671.219 805.413C665.215 794.428 661.098 782.075 656.451 770.466L653.561 764.545C662.48 755.595 674.446 748.989 684.789 741.788L754.945 692.667C767.427 683.884 781.245 675.723 792.265 665.122Z"/>
	<path fill="#FEFEFE" d="M792.265 665.122C797.236 672.462 800.488 681.174 804.35 689.128C808.068 696.785 812.88 704.519 815.318 712.676C814.749 713.487 814.247 714.012 813.46 714.614Q764.405 748.141 716.008 782.612C702.235 792.423 688.779 803.196 674.602 812.388L671.219 805.413C715.867 772.843 761.606 741.743 806.326 709.26C800.645 698.452 795.223 687.657 790.16 676.543C778.776 684.245 767.861 692.643 756.677 700.634C723.611 724.261 690.532 748.323 656.451 770.466L653.561 764.545C662.48 755.595 674.446 748.989 684.789 741.788L754.945 692.667C767.427 683.884 781.245 675.723 792.265 665.122Z"/>
	<path fill="#E21111" d="M548.061 103.352C564.204 104.216 580.467 106.881 596.282 110.134Q601.787 111.269 607.262 112.543Q612.737 113.817 618.179 115.229Q623.62 116.64 629.024 118.189Q634.427 119.737 639.791 121.421Q645.154 123.105 650.473 124.924Q655.791 126.743 661.063 128.696Q666.334 130.648 671.555 132.733Q676.775 134.818 681.941 137.033Q687.107 139.249 692.216 141.595Q697.325 143.94 702.372 146.413Q707.42 148.887 712.404 151.487Q717.388 154.087 722.305 156.812Q727.221 159.537 732.068 162.385Q736.914 165.233 741.687 168.202Q746.46 171.171 751.157 174.26Q755.854 177.349 760.471 180.555C771.561 188.153 782.345 195.856 792.47 204.711C786.602 209.116 780.326 213.094 774.252 217.217L748.282 234.816C738.858 228.107 729.602 221.244 719.833 215.019Q713.52 211.022 707.063 207.261Q700.606 203.5 694.015 199.98Q687.424 196.459 680.707 193.185Q673.99 189.911 667.157 186.886Q660.325 183.862 653.385 181.092Q646.445 178.322 639.407 175.811Q632.37 173.299 625.244 171.049Q618.119 168.799 610.915 166.813C596.746 162.807 582.11 158.836 567.414 157.414C562.24 138.883 554.122 121.544 548.061 103.352Z"/>
	<path fill="#E21111" d="M471.781 103.688C472.991 103.492 473.71 103.273 474.865 103.806C475.579 109.984 459.689 149.254 456.184 157.293C438.711 161.648 421.149 164.924 403.812 169.984Q397.63 171.796 391.512 173.814Q385.393 175.832 379.346 178.054Q373.299 180.276 367.33 182.7Q361.361 185.123 355.477 187.745Q349.592 190.368 343.799 193.186Q338.006 196.004 332.31 199.015Q326.615 202.026 321.023 205.226Q315.432 208.426 309.951 211.812C298.06 219.151 286.681 227.354 274.944 234.945C266.962 229.937 259.24 224.535 251.482 219.19Q240.818 212.214 230.852 204.273C245.01 191.539 261.824 180.205 277.892 170.042Q282.171 167.279 286.515 164.621Q290.859 161.962 295.266 159.409Q299.673 156.855 304.14 154.409Q308.607 151.962 313.132 149.624Q317.657 147.286 322.237 145.058Q326.816 142.829 331.449 140.712Q336.081 138.594 340.762 136.589Q345.444 134.584 350.173 132.692Q354.902 130.8 359.675 129.022Q364.448 127.245 369.262 125.583Q374.077 123.921 378.93 122.376Q383.783 120.83 388.671 119.402Q393.56 117.974 398.482 116.664Q403.404 115.354 408.356 114.163Q413.308 112.972 418.287 111.9Q423.266 110.829 428.27 109.878C442.697 107.153 457.209 105.394 471.781 103.688Z"/>
	<path fill="#E21111" d="M845.996 251.1C858.364 264.12 868.542 279.626 878.377 294.578Q880.657 297.99 882.871 301.446Q885.084 304.901 887.23 308.399Q889.376 311.897 891.454 315.436Q893.531 318.975 895.54 322.553Q897.549 326.132 899.488 329.749Q901.427 333.365 903.295 337.019Q905.163 340.673 906.96 344.362Q908.757 348.052 910.482 351.775Q912.208 355.499 913.86 359.255Q915.513 363.011 917.092 366.799Q918.672 370.586 920.177 374.404Q921.683 378.222 923.114 382.068Q924.545 385.914 925.901 389.787Q927.258 393.66 928.539 397.558Q929.82 401.457 931.025 405.38Q932.23 409.303 933.358 413.248Q934.487 417.194 935.539 421.16Q936.591 425.127 937.566 429.113Q938.541 433.099 939.438 437.104Q940.335 441.108 941.154 445.129Q941.974 449.151 942.715 453.187Q943.456 457.223 944.119 461.273Q944.782 465.323 945.366 469.385Q945.95 473.447 946.455 477.519Q946.96 481.592 947.386 485.673Q947.812 489.755 948.159 493.844Q948.506 497.933 948.773 502.028Q949.04 506.123 949.228 510.222Q949.416 514.322 949.524 518.424Q949.632 522.526 949.661 526.63Q949.69 530.734 949.639 534.837Q949.588 538.94 949.457 543.042Q949.338 548.322 949.091 553.597Q948.844 558.873 948.469 564.14Q948.093 569.408 947.589 574.665Q947.085 579.922 946.453 585.166Q945.822 590.409 945.062 595.635Q944.303 600.861 943.417 606.068Q942.53 611.274 941.517 616.457Q940.504 621.64 939.365 626.797Q938.226 631.954 936.962 637.081Q935.698 642.209 934.309 647.304Q932.92 652.399 931.407 657.459Q929.895 662.519 928.259 667.541Q926.624 672.562 924.867 677.543Q923.109 682.523 921.231 687.459Q919.353 692.395 917.355 697.284Q915.357 702.172 913.241 707.011Q911.125 711.849 908.891 716.635Q906.658 721.421 904.308 726.15Q901.959 730.88 899.495 735.551Q897.03 740.222 894.453 744.832Q891.876 749.442 889.187 753.987Q886.499 758.533 883.7 763.011Q880.901 767.49 877.995 771.899Q875.088 776.308 872.074 780.645Q869.061 784.982 865.942 789.245Q862.824 793.507 859.603 797.692Q856.382 801.877 853.06 805.982Q849.737 810.088 846.316 814.111Q842.895 818.134 839.377 822.073Q835.859 826.011 832.245 829.863Q828.632 833.715 824.926 837.477Q821.22 841.24 817.424 844.911Q813.494 848.692 809.472 852.375Q805.45 856.059 801.339 859.643Q797.229 863.226 793.031 866.709Q788.834 870.191 784.553 873.569Q780.272 876.948 775.91 880.221Q771.547 883.493 767.106 886.658Q762.665 889.823 758.147 892.879Q753.63 895.934 749.039 898.878Q744.448 901.822 739.787 904.653Q735.125 907.484 730.396 910.2Q725.667 912.915 720.872 915.515Q716.078 918.114 711.222 920.595Q706.365 923.076 701.449 925.438Q696.534 927.8 691.561 930.04Q686.589 932.281 681.564 934.399Q676.538 936.518 671.463 938.512Q666.387 940.507 661.264 942.377Q656.141 944.247 650.974 945.991Q645.806 947.735 640.598 949.352Q635.39 950.969 630.143 952.458Q624.897 953.947 619.616 955.308Q614.334 956.668 609.021 957.899Q603.708 959.129 598.367 960.23Q593.025 961.33 587.658 962.299Q582.292 963.268 576.903 964.106Q571.514 964.944 566.106 965.649Q560.698 966.355 555.275 966.928Q549.851 967.501 544.415 967.941Q538.98 968.381 533.535 968.688Q528.09 968.995 522.639 969.169Q517.188 969.343 511.734 969.383Q506.281 969.423 500.828 969.33Q495.485 969.198 490.146 968.934Q484.808 968.671 479.478 968.277Q474.147 967.883 468.828 967.358Q463.509 966.834 458.204 966.179Q452.9 965.524 447.613 964.74Q442.326 963.955 437.059 963.042Q431.793 962.128 426.551 961.086Q421.309 960.043 416.093 958.873Q410.878 957.702 405.693 956.404Q400.508 955.106 395.357 953.681Q390.205 952.257 385.09 950.706Q379.975 949.156 374.9 947.48Q369.824 945.805 364.791 944.006Q359.758 942.207 354.771 940.285Q349.783 938.363 344.844 936.32Q339.905 934.276 335.018 932.112Q330.131 929.948 325.298 927.665Q320.465 925.382 315.69 922.982Q310.914 920.581 306.199 918.064Q301.484 915.547 296.832 912.915Q292.18 910.284 287.594 907.539Q283.007 904.794 278.49 901.937Q273.972 899.081 269.526 896.115Q265.08 893.148 260.707 890.074Q256.335 887 252.039 883.819Q247.744 880.639 243.527 877.354Q239.311 874.069 235.176 870.682Q231.042 867.295 226.991 863.808Q222.941 860.32 218.977 856.735Q215.013 853.149 211.138 849.467Q207.264 845.786 203.48 842.01Q199.697 838.235 196.007 834.368C113.096 746.966 72.3134 637.244 75.5267 517.068C77.3315 449.565 97.2275 380.38 129.694 321.316C143.231 296.69 159.553 272.892 176.496 250.485C185.18 268.947 190.834 288.988 197.916 308.101C190.943 318.785 183.796 329.367 177.655 340.562Q175.513 344.409 173.456 348.302Q171.4 352.195 169.432 356.133Q167.463 360.072 165.582 364.053Q163.702 368.034 161.911 372.056Q160.12 376.078 158.419 380.139Q156.718 384.2 155.108 388.298Q153.498 392.396 151.979 396.529Q150.461 400.662 149.035 404.828Q147.61 408.994 146.277 413.19Q144.945 417.387 143.707 421.612Q142.468 425.837 141.324 430.089Q140.18 434.34 139.132 438.617Q138.083 442.893 137.13 447.191Q136.176 451.49 135.319 455.809Q134.462 460.127 133.702 464.464Q132.941 468.801 132.278 473.153Q131.614 477.506 131.048 481.872Q130.481 486.239 130.013 490.617Q129.544 494.995 129.173 499.382Q128.802 503.769 128.529 508.163Q128.256 512.558 128.081 516.957Q127.906 521.357 127.829 525.759Q127.752 530.161 127.773 534.564Q127.795 538.967 127.914 543.368Q128.034 547.77 128.251 552.167Q128.469 556.565 128.785 560.956Q129.1 565.348 129.514 569.731Q129.928 574.115 130.439 578.488Q130.95 582.861 131.559 587.222Q132.167 591.582 132.873 595.928Q133.579 600.274 134.382 604.604Q135.184 608.933 136.083 613.243Q137.55 620.26 139.282 627.217Q141.015 634.173 143.01 641.059Q145.006 647.944 147.261 654.749Q149.517 661.554 152.029 668.268Q154.542 674.982 157.308 681.596Q160.073 688.21 163.088 694.714Q166.103 701.218 169.363 707.603Q172.623 713.988 176.123 720.244C182.271 731.202 189.25 741.543 195.737 752.278C199.385 743.331 203.002 734.389 207.14 725.655C221.502 735.434 236.053 745.056 250 755.42Q240.489 776.99 232.312 799.101C256.462 822.894 282.524 843.022 311.191 861.048C319.526 866.289 327.94 871.777 336.788 876.11L372.498 793.243C377.105 782.467 385.514 759.082 391.636 750.765C449.785 731.258 475.49 719.042 511.285 667.18C545.56 718.693 577.403 733.295 634.7 750.899C637.211 755.424 638.951 760.49 640.918 765.279Q645.316 775.964 649.919 786.561C658.151 805.663 666.829 824.617 674.797 843.826C678.9 853.717 682.57 863.78 686.472 873.75C727.878 851.358 756.82 828.239 791.087 796.671Q780.007 778.643 769.554 760.243C776.821 755.494 783.75 750.434 790.646 745.163C796.439 740.735 802.203 735.943 808.53 732.303C810.424 730.59 812.563 729.312 814.717 727.96C813.769 723.641 813.628 719.026 813.46 714.614C814.247 714.012 814.749 713.487 815.318 712.676C812.88 704.519 808.068 696.785 804.35 689.128C800.488 681.174 797.236 672.462 792.265 665.122C796.447 653.966 804.429 644.012 808.69 631.858C811.887 622.738 813.731 613.434 814.738 603.844C816.633 585.785 815.777 567.528 816.067 549.405Q816.486 532.5 816.577 515.589C816.63 509.005 816.911 502.28 816.323 495.718C815.966 491.726 814.995 487.99 813.227 484.389C806.846 471.39 795.243 464.232 781.169 462.621C777.899 462.247 772.838 462.432 769.887 461.207C769.719 461.137 769.566 461.037 769.405 460.952C765.877 455.985 762.683 450.796 759.525 445.591C761.46 438.774 764.972 431.989 767.488 425.316C772.644 411.644 777.421 397.824 782.437 384.098Q797.057 344.018 812.124 304.105C817.581 289.557 822.711 274.76 828.698 260.432C829.366 263.654 831.376 266.407 832.176 269.665C833.129 273.549 832.508 277.776 833.271 281.748C834.187 280.918 834.744 279.991 835.384 278.952C837.766 269.656 842.067 259.846 845.996 251.1Z"/>
	<path d="M828.698 260.432C829.366 263.654 831.376 266.407 832.176 269.665C833.129 273.549 832.508 277.776 833.271 281.748C834.187 280.918 834.744 279.991 835.384 278.952Q830.475 293.377 825.3 307.709C868.731 370.041 892.865 435.363 896.866 511.383Q897.491 522.675 897.467 533.985Q897.444 545.295 896.771 556.584Q896.099 567.874 894.78 579.106Q893.462 590.339 891.501 601.477C881.553 657.064 858.743 706.241 827.329 752.797C823.522 744.805 819.305 737.025 814.08 729.855C812.238 730.672 810.402 731.559 808.53 732.303C810.424 730.59 812.563 729.312 814.717 727.96C813.769 723.641 813.628 719.026 813.46 714.614C814.247 714.012 814.749 713.487 815.318 712.676C812.88 704.519 808.068 696.785 804.35 689.128C800.488 681.174 797.236 672.462 792.265 665.122C796.447 653.966 804.429 644.012 808.69 631.858C811.887 622.738 813.731 613.434 814.738 603.844C816.633 585.785 815.777 567.528 816.067 549.405Q816.486 532.5 816.577 515.589C816.63 509.005 816.911 502.28 816.323 495.718C815.966 491.726 814.995 487.99 813.227 484.389C806.846 471.39 795.243 464.232 781.169 462.621C777.899 462.247 772.838 462.432 769.887 461.207C769.719 461.137 769.566 461.037 769.405 460.952C765.877 455.985 762.683 450.796 759.525 445.591C761.46 438.774 764.972 431.989 767.488 425.316C772.644 411.644 777.421 397.824 782.437 384.098Q797.057 344.018 812.124 304.105C817.581 289.557 822.711 274.76 828.698 260.432Z"/>
	<path fill="#E21111" d="M511.539 43.96C516.242 54.2761 519.926 65.0887 523.953 75.682L547.597 138.281Q580.586 225.455 615.759 311.769L633.622 356.86C637.71 367.345 641.578 377.943 646.08 388.257C649.805 389.351 653.436 389.804 657.296 390.073C653.481 368.344 643.062 347.309 635.589 326.606C647.588 319.047 659.195 310.587 670.929 302.606L743.249 253.393Q782.664 227.061 821.68 200.143C835.365 190.822 849.31 181.746 862.678 171.979C852.255 201.734 839.892 230.944 828.698 260.432C822.711 274.76 817.581 289.557 812.124 304.105Q797.057 344.018 782.437 384.098C777.421 397.824 772.644 411.644 767.488 425.316C764.972 431.989 761.46 438.774 759.525 445.591C762.683 450.796 765.877 455.985 769.405 460.952C769.566 461.037 769.719 461.137 769.887 461.207C772.838 462.432 777.899 462.247 781.169 462.621C795.243 464.232 806.846 471.39 813.227 484.389C814.995 487.99 815.966 491.726 816.323 495.718C816.911 502.28 816.63 509.005 816.577 515.589Q816.486 532.5 816.067 549.405C815.777 567.528 816.633 585.785 814.738 603.844C813.731 613.434 811.887 622.738 808.69 631.858C804.429 644.012 796.447 653.966 792.265 665.122C781.245 675.723 767.427 683.884 754.945 692.667L684.789 741.788C674.446 748.989 662.48 755.595 653.561 764.545C649.296 758.262 646.935 749.729 643.471 742.873C628.402 735.979 611.509 733.011 596.145 726.534C565.231 713.503 537.931 691.331 521.315 661.928C517.409 655.016 514.468 647.815 511.493 640.474C507.602 649.341 503.652 658.339 498.666 666.656C480.156 697.526 451.507 717.426 418.245 729.638C406.071 734.107 392.43 736.519 380.954 742.445L380.267 742.803C376.029 748.924 373.447 756.455 370.304 763.192C338.354 742.817 307.579 720.4 276.739 698.372C261.492 687.482 245.138 677.397 230.764 665.393C231.226 664.016 231.734 663.418 231.042 662.029C229.112 658.161 225.936 654.362 223.577 650.687C218.636 642.992 214.906 634.29 212.347 625.525C203.995 596.917 206.41 568.449 206.455 539.121C206.475 526.152 205.546 512.812 206.472 499.898C207.287 488.548 211.947 478.14 220.739 470.715C230.64 462.354 241.636 460.581 254.187 461.675Q259.069 454.918 263.703 447.989C259.954 440.863 258.09 431.922 255.385 424.301Q246.094 398.494 236.462 372.813Q199.062 274.173 163.627 174.811C172.892 182.423 183.243 188.99 193.215 195.645L237.309 224.883C267.667 245.028 297.312 266.16 327.318 286.813C347.468 300.681 368.343 313.807 387.855 328.551C383.277 338.673 379.958 349.299 376.092 359.699C371.956 370.826 367.34 381.767 363.588 393.036C367.972 392.336 371.89 391.939 376.308 392.595L377.587 392.036Q416.443 295.584 453.654 198.487Q474.111 146.523 493.148 94.0227C499.306 77.3617 505.973 60.8281 511.539 43.96Z"/>
	<path fill="#FEFEFE" d="M377.587 392.036C385.228 389.8 392.069 389.664 399.302 393.55C405.337 396.792 410.28 402.469 412.191 409.088C414.66 417.64 411.744 424.551 407.556 431.858C402.001 441.549 395.244 450.601 389.178 459.983C380.502 473.404 372.489 487.258 362.627 499.873C355.935 487.746 348.806 479.897 335.151 475.977C330.843 474.74 326.348 474.03 321.919 473.365Q335.076 452.028 348.543 430.885C355.903 419.292 365.515 400.798 376.308 392.595L377.587 392.036Z"/>
	<path fill="#FEFEFE" d="M630.623 389.579C634.394 389.316 638.519 389.544 642.141 390.651C645.989 391.827 648.598 393.914 651.26 396.856C658.975 405.382 664.885 416.018 671.364 425.537C682.018 441.188 693.716 456.729 702.916 473.264Q701.204 473.396 699.495 473.556C685.995 474.832 676.545 479.219 667.861 489.711C665.145 493.791 663.625 498.199 662.056 502.807C652.31 489.261 643.31 475.163 634.023 461.299C627.685 451.837 611.303 430.868 608.635 420.701Q608.491 420.132 608.376 419.556Q608.261 418.981 608.175 418.4Q608.089 417.819 608.032 417.235Q607.974 416.651 607.947 416.064Q607.919 415.478 607.92 414.891Q607.921 414.304 607.952 413.718Q607.982 413.132 608.042 412.548Q608.102 411.964 608.191 411.383Q608.28 410.803 608.397 410.228Q608.515 409.653 608.661 409.084Q608.807 408.516 608.982 407.955Q609.156 407.395 609.358 406.843Q609.56 406.292 609.789 405.752Q610.019 405.211 610.275 404.683Q610.531 404.155 610.813 403.64Q611.095 403.125 611.402 402.625C615.858 395.22 622.571 391.701 630.623 389.579Z"/>
	<path fill="#FEFEFE" d="M716.25 470.828C706.901 458.701 699.35 445.297 690.878 432.562C683.664 421.718 674.734 411.273 669.282 399.383C667.534 395.572 666.719 391.557 667.087 387.358Q667.146 386.723 667.237 386.092Q667.328 385.461 667.451 384.835Q667.574 384.209 667.728 383.59Q667.882 382.972 668.068 382.361Q668.253 381.751 668.469 381.151Q668.684 380.551 668.93 379.963Q669.176 379.374 669.451 378.799Q669.727 378.224 670.031 377.663Q670.335 377.102 670.667 376.558Q670.998 376.013 671.357 375.486Q671.716 374.959 672.101 374.451Q672.486 373.942 672.897 373.454Q673.307 372.966 673.741 372.499Q674.176 372.032 674.633 371.588Q675.091 371.143 675.57 370.723Q676.049 370.302 676.549 369.906C681.586 365.892 688.113 363.872 694.525 364.789Q695.494 364.929 696.449 365.142Q697.405 365.354 698.342 365.637Q699.279 365.92 700.192 366.272Q701.105 366.624 701.99 367.043Q702.874 367.462 703.725 367.945Q704.576 368.429 705.388 368.975Q706.201 369.521 706.97 370.126Q707.74 370.73 708.462 371.391C715.739 378.058 720.726 388.302 726.16 396.498C737.055 412.934 747.755 429.777 759.525 445.591C762.683 450.796 765.877 455.985 769.405 460.952C766.052 462.402 760.758 462.447 757.073 463.112C743.524 465.557 729.608 467.545 716.25 470.828Z"/>
	<path fill="#FEFEFE" d="M263.703 447.989C274.646 432.276 284.939 416.01 295.36 399.944C301.544 390.41 307.318 379.354 315.495 371.377C318.63 368.319 322.356 366.288 326.671 365.467Q327.347 365.345 328.028 365.257Q328.709 365.169 329.394 365.116Q330.078 365.063 330.765 365.045Q331.451 365.027 332.138 365.044Q332.825 365.061 333.509 365.112Q334.194 365.164 334.875 365.251Q335.557 365.337 336.233 365.458Q336.909 365.579 337.578 365.734Q338.247 365.889 338.907 366.078Q339.567 366.267 340.217 366.489Q340.867 366.711 341.504 366.966Q342.142 367.221 342.766 367.508Q343.39 367.795 343.998 368.114Q344.607 368.432 345.198 368.781Q345.79 369.13 346.363 369.508Q346.936 369.887 347.489 370.294C352.583 374.037 356.457 379.831 357.311 386.161C357.94 390.823 356.701 395.219 354.844 399.448C350.334 409.717 342.856 418.974 336.764 428.343C327.441 442.682 318.164 457.265 309.248 471.86Q292.306 468.279 275.215 465.501C268.22 464.315 261.075 463.383 254.187 461.675Q259.069 454.918 263.703 447.989Z"/>
	<path fill="#FEFEFE" d="M536.969 466.576C542.285 466.292 547.836 466.851 552.491 469.647C555.352 471.365 557.737 474.395 559.762 477.013C566.756 486.051 572.504 496.1 578.839 505.609C586.924 517.744 610.129 548.404 613.141 560.643C614.394 565.733 612.418 572.7 609.775 577.069C605.825 583.598 600.028 586.202 592.931 587.923L592.264 587.981C587.705 588.407 583.768 588.136 579.636 585.888C577.146 584.534 574.846 582.774 573.02 580.6C563.054 568.731 555.647 554.676 547.138 541.765C538.861 529.207 529.429 517.233 521.921 504.191C519.955 500.775 518.122 497.027 517.162 493.186C515.968 488.412 517.693 481.581 520.136 477.52C524.038 471.033 530.001 468.437 536.969 466.576Z"/>
	<path fill="#FEFEFE" d="M480.153 465.061C484.565 464.918 488.657 465.26 492.821 466.855Q493.436 467.089 494.039 467.353Q494.641 467.618 495.23 467.912Q495.819 468.206 496.392 468.53Q496.965 468.853 497.521 469.205Q498.077 469.557 498.615 469.936Q499.153 470.315 499.671 470.721Q500.189 471.126 500.686 471.558Q501.183 471.989 501.658 472.444Q502.133 472.9 502.585 473.379Q503.036 473.857 503.463 474.358Q503.89 474.859 504.291 475.381Q504.692 475.902 505.067 476.444Q505.441 476.985 505.788 477.544Q506.135 478.103 506.454 478.679Q506.772 479.255 507.062 479.846Q507.351 480.437 507.61 481.042C509.503 485.564 510.198 491.47 508.167 496.065C504.903 503.451 499.457 510.036 494.849 516.625Q488.392 526.006 482.126 535.516L462.584 565.166C458.989 570.629 455.489 577.025 451.007 581.762C447.743 585.213 443.719 586.99 439.43 588.773C433.595 589.627 428.382 588.719 423.225 585.766C416.885 582.137 411.965 575.962 410.278 568.811C408.518 561.355 410.684 556.5 414.464 550.296C422.561 537.006 432.215 524.704 440.806 511.745C447.346 501.88 453.559 491.796 460.246 482.027C462.836 478.243 465.541 473.786 468.751 470.534C471.873 467.372 475.969 466.088 480.153 465.061Z"/>
	<path fill="#FEFEFE" d="M581.855 424.596C586.955 424.337 591.816 425.505 596.05 428.433C598.795 430.331 600.944 433.302 602.908 435.969C606.48 440.82 609.526 446.064 612.851 451.085L631.885 479.487C640.338 492.073 649.778 504.294 657.631 517.242C659.571 520.44 662.06 524.295 662.552 528.057Q662.631 528.686 662.679 529.318Q662.727 529.95 662.745 530.584Q662.762 531.217 662.749 531.851Q662.735 532.485 662.691 533.117Q662.647 533.75 662.572 534.379Q662.497 535.008 662.391 535.634Q662.286 536.259 662.15 536.878Q662.014 537.497 661.849 538.109Q661.683 538.721 661.488 539.324Q661.292 539.927 661.068 540.52Q660.844 541.113 660.591 541.694Q660.338 542.275 660.057 542.843Q659.776 543.412 659.468 543.966Q659.16 544.52 658.825 545.058Q658.49 545.596 658.13 546.117Q657.769 546.639 657.384 547.142C653.147 552.576 647.456 554.978 640.776 555.705C636.057 556.052 630.837 555.265 626.662 552.991C624.679 551.91 623.296 550.556 621.914 548.784C613.585 538.11 606.759 526.028 599.228 514.767Q591.706 503.454 584.011 492.258C577.52 482.889 562.692 464.128 560.002 453.62C558.477 447.665 559.692 440.606 563.055 435.494C567.555 428.653 574.215 426.14 581.855 424.596Z"/>
	<path fill="#FEFEFE" d="M437.255 424.152C442.133 423.577 447.231 425.244 451.4 427.665Q451.959 427.992 452.5 428.346Q453.042 428.701 453.565 429.082Q454.088 429.464 454.59 429.872Q455.093 430.28 455.575 430.712Q456.056 431.145 456.515 431.602Q456.973 432.059 457.408 432.538Q457.843 433.018 458.253 433.519Q458.663 434.02 459.047 434.541Q459.43 435.062 459.787 435.603Q460.144 436.143 460.473 436.7Q460.802 437.258 461.102 437.831Q461.402 438.405 461.673 438.993Q461.943 439.581 462.183 440.182Q462.423 440.783 462.633 441.396Q462.842 442.008 463.02 442.631Q463.198 443.253 463.344 443.884C465.065 451.391 462.525 456.952 458.694 463.158C447.59 481.151 435.315 498.59 423.592 516.195C416.627 526.655 407.905 542.568 399.139 550.977C396.209 553.788 393.134 555.072 389.235 556.001C382.34 556.07 376.09 555.551 370.202 551.493Q369.761 551.188 369.337 550.861Q368.912 550.535 368.505 550.187Q368.097 549.839 367.708 549.471Q367.318 549.104 366.948 548.716Q366.577 548.329 366.227 547.924Q365.877 547.518 365.548 547.096Q365.218 546.673 364.911 546.235Q364.603 545.796 364.318 545.342Q364.033 544.888 363.772 544.421Q363.51 543.953 363.273 543.473Q363.035 542.993 362.822 542.501Q362.609 542.01 362.421 541.508Q362.233 541.006 362.071 540.496Q361.909 539.985 361.773 539.467Q361.637 538.949 361.527 538.425Q361.417 537.9 361.334 537.371C360.353 531.282 362.037 524.989 364.537 519.457C367.71 512.436 372.519 506.1 376.811 499.726L395.13 472.445C403.314 460.185 410.989 446.547 419.635 434.811C424.482 428.232 429.119 425.391 437.255 424.152Z"/>
	<path fill="#FEFEFE" d="M771.782 473.679C775.102 473.29 778.295 473.133 781.607 473.698C788.929 474.948 795.764 478.508 800.051 484.737C802.468 488.249 803.803 492.279 804.314 496.49C805.748 508.306 804.322 525.557 804.156 537.841C803.805 563.846 805.942 591.109 800.586 616.701C797.249 632.646 790.074 647.14 778.925 659.085C771.823 666.694 762.533 671.875 753.893 677.53Q744.796 683.586 735.815 689.814C708.572 708.515 681.602 727.807 653.996 745.957C652.201 741.993 650.457 738.078 648.165 734.366C637.657 729.741 626.59 727.321 615.693 723.894Q613.472 723.204 611.272 722.448Q609.073 721.692 606.897 720.87Q604.722 720.047 602.572 719.16Q600.422 718.272 598.3 717.32Q596.178 716.368 594.086 715.353Q591.994 714.337 589.933 713.258Q587.872 712.18 585.845 711.04Q583.818 709.9 581.826 708.699Q579.834 707.498 577.88 706.238Q575.925 704.977 574.009 703.658Q572.094 702.339 570.219 700.963Q568.344 699.587 566.511 698.155Q564.678 696.723 562.89 695.236Q561.101 693.75 559.359 692.21Q557.616 690.669 555.92 689.077Q554.225 687.485 552.578 685.843C535.022 668.213 521.806 644.699 518.926 619.759C517.416 606.684 517.988 593.369 517.989 580.228L518.182 520.299C522.188 526.129 525.856 532.227 529.796 538.111C535.09 546.02 540.644 553.757 545.875 561.707C551.688 570.544 557.084 579.995 564.135 587.918C567.576 591.785 571.162 594.754 575.673 597.276Q579.07 598.83 582.699 599.72C591.273 601.808 601.432 599.417 608.815 594.791C619.505 588.094 623.132 577.781 625.772 566.063C635.545 568.235 644.598 568.97 653.93 564.609C665.138 559.371 670.034 549.686 673.996 538.57C682.758 545.085 691.088 549.749 702.019 551.26C681.509 569.263 665.304 590.921 658.056 617.578C652.076 639.573 653.172 662.131 659.673 683.874C661.175 688.896 662.819 694.358 665.414 698.915C660.146 675.733 659.784 651.088 666.981 628.269C678.3 592.388 704.12 566.346 737.814 550.732C748.661 545.705 760.45 542.247 770.985 536.641L771.496 536.363C745.684 536.823 709.49 548.91 686.456 533.178C679.92 528.715 675.994 521.991 674.638 514.274C673.498 507.794 674.606 500.303 678.52 494.892C680.3 492.432 682.317 490.829 685.108 489.676C695.25 485.487 707.171 484.576 717.946 482.68C735.89 479.521 753.738 476.249 771.782 473.679Z"/>
	<path fill="#FEFEFE" d="M242.058 473.086C255.365 472.079 278.113 478.922 291.933 481.471C301.996 483.326 312.205 484.31 322.263 486.249C331.656 488.06 341.698 490.395 347.238 499.003C350.432 503.965 350.701 509.694 349.24 515.315C347.018 523.864 340.893 531.2 333.224 535.458C311.688 547.412 270.477 535.54 248.13 529.13C280.248 546.887 316.687 563.499 338.709 594.102C361.875 626.294 366.608 659.114 360.378 697.552C369.316 681.42 371.697 649.441 368.638 631.411C362.887 597.522 344.142 570.878 316.587 551.158C328.898 550.032 337.291 547.531 347.593 540.594C351.434 549.353 355.727 556.774 363.983 562.049C374.95 569.057 386.059 568.215 398.291 565.571C399.176 572.15 400.93 578.351 404.611 583.943C410.473 592.848 419.644 598.346 429.991 600.422C432.789 600.571 435.592 600.729 438.393 600.557C443.572 600.239 448.721 598.844 452.971 595.761C463.185 588.355 470.029 574.557 477.002 564.224L496.214 535.888C499.001 531.77 501.651 526.891 504.983 523.248C505.205 523.006 505.432 522.769 505.656 522.53C505.29 541.147 505.56 559.829 505.59 578.451C505.624 598.598 507.385 617.936 500.727 637.402C485.898 680.756 453.368 705.905 411.946 721.333C401.719 725.142 390.156 727.057 380.454 731.927C373.227 735.555 371.729 740.556 369.297 747.793C358.844 739.527 347.651 732.007 336.783 724.288C313.104 707.471 289.2 691.02 265.709 673.935C257.098 667.673 246.394 662.502 239.3 654.538C231.291 645.547 226.049 632.856 222.62 621.466C214.685 595.112 217.624 560.935 217.691 533.582C217.718 522.517 216.507 510.938 217.877 499.97C218.426 495.571 219.558 491.226 221.742 487.339C226.233 479.344 233.56 475.431 242.058 473.086Z"/>
</svg>
