<?xml version="1.0" encoding="utf-8" ?>
<svg xmlns="http://www.w3.org/2000/svg" xmlns:xlink="http://www.w3.org/1999/xlink" width="1000" height="1000">
	<path transform="scale(0.976562 0.976562)" d="M698.356 111.478C707.292 109.527 719.663 109.731 728.543 111.99C719.899 113.232 707.095 112.484 698.356 111.478Z"/>
	<path transform="scale(0.976562 0.976562)" d="M258.018 592.498C264.118 589.182 268.108 582.991 273.001 578.249C279.904 571.559 289.329 562.064 294.156 553.773C296.536 549.683 298.155 545.191 300.412 541.039C303.136 536.031 306.304 531.616 308.196 526.187C311.29 517.305 312.93 508 315.476 498.962C318.122 489.569 321.386 480.625 323.6 471.058C325.93 460.99 327.315 450.394 330.409 440.551C332.184 434.903 334.493 429.695 337.23 424.458C344.694 410.176 348.97 407.875 360.834 397.666C364.698 394.342 368.063 390.377 372.209 387.392C375.687 384.888 379.424 382.749 382.865 380.198C388.909 375.715 394.448 370.611 399.955 365.503C402.507 363.135 405.362 360.759 407.576 358.07C410.898 354.034 413.633 349.38 416.715 345.146C422.121 337.717 427.858 330.468 433.482 323.206C434.907 321.366 436.003 316.916 437.575 315.72C438.097 315.323 438.851 315.314 439.368 314.91C439.753 314.609 458.277 290.07 460.102 287.576C466.064 279.432 469.539 270.061 477.849 263.703C482.217 260.36 487.278 258.183 492.158 255.71C497.207 253.151 502.016 250.102 507.119 247.654C512.818 244.92 518.811 242.811 524.463 239.969C528.653 237.863 531.973 234.348 536.251 232.459C540.022 230.794 544.349 230.558 548.12 228.948C550.976 227.729 553.042 225.039 555.912 223.746C564.641 219.815 573.862 217.406 582.47 213.052C585.052 211.746 586.266 209.541 588.292 207.611C591.509 204.545 594.946 201.731 598.053 198.542C603.346 193.111 608.2 187.205 613.246 181.542C622.335 171.34 631.514 161.243 640.911 151.33C644.664 147.372 647.872 142.978 651.895 139.261C660.59 131.229 669.031 126.578 679.055 120.648C685.048 117.102 691.312 112.41 698.356 111.478C707.095 112.484 719.899 113.232 728.543 111.99C736.856 112.75 744.356 114.637 751.312 119.333C767.093 129.987 774.251 143.824 777.766 162.027C783.171 190.017 781.141 222.857 768.84 248.691C762.943 261.076 754.852 272.424 746.979 283.605C740.52 292.777 734.124 302.029 727.009 310.711C723.384 315.135 719.114 318.96 715.226 323.146C711.164 327.518 707.537 332.286 703.439 336.631C698.836 341.512 693.597 345.787 688.991 350.675C684.726 355.2 681.67 360.781 677.431 365.334C668.96 374.433 658.071 380.294 650.978 390.742C651.002 393.75 651.208 396.755 651.377 399.757C652.441 400.628 653.482 401.511 654.209 402.697C656.955 407.172 658.427 412.88 660.434 417.736C664.08 426.557 668.098 435.146 671.349 444.134C673.503 450.089 675.022 456.238 676.983 462.254C678.31 466.325 680.064 470.272 681.25 474.386C683.564 482.417 683.553 491.403 684.168 499.717C685.082 512.079 686.264 524.369 685.94 536.783C685.344 559.591 682.23 582.222 682.497 605.057L684.069 701.841C684.235 714.058 685.911 726.489 684.769 738.673C683.539 751.79 680.721 759.736 674.339 771.057C670.089 773.278 666.908 776.789 662.718 779.001C652.317 784.493 636.142 784.435 624.598 784.811C624.018 802.75 625.92 836.387 621.45 852.54C619.735 858.737 615.139 866.824 610.78 871.611C606.984 875.78 601.489 879.355 596.133 881.114C586.066 884.421 566.081 883.582 556.141 879.69C552.079 878.099 549.734 873.286 544.816 873.791C541.02 874.181 532.435 892.776 529.504 896.446C522.913 904.695 508.141 911.452 497.746 912.521C476.408 914.716 455.765 899.462 445.341 881.938C442.461 877.096 442.095 870.654 436.718 867.655C427.571 862.555 408.381 865.321 398.526 857.062C390.654 850.466 384.185 843.327 378.868 834.475C376.962 831.302 375.592 827.857 374.002 824.524C371.821 819.953 369.17 815.54 367.278 810.841C364.433 803.776 362.609 796.176 360.247 788.925C358.33 783.039 355.677 777.427 353.91 771.49C350.797 761.032 348.626 750.119 346.163 739.487C338.691 707.241 332.258 674.561 329.242 641.587C319.567 643.818 311.151 650.62 301.942 654.303C289.773 659.17 272.32 657.861 260.509 652.585C253.613 649.506 247.191 643.976 244.488 636.806C236.49 615.596 250.37 609.124 258.018 592.498ZM706.924 115.699C689.825 116.649 662.517 138.16 651.241 150.7C646.664 155.79 642.357 161.142 637.661 166.123C630.983 173.206 622.877 180.044 617.541 188.21C615.075 191.984 611.779 196.327 611.116 200.855C610.81 202.945 611.693 206.557 609.923 207.844C605.535 211.033 590.134 216.356 584.21 218.822C572.971 223.499 561.801 228.788 550.411 233.031C547.074 234.274 543.473 234.295 540.17 235.662C533.07 238.6 526.541 243.087 519.875 246.884C509.656 252.706 499.242 258.087 489.227 264.275C484.556 267.161 480.632 270.938 477.002 275.031C468.63 284.473 461.606 295.449 453.998 305.542C446.911 314.943 439.025 323.931 432.275 333.546C429.16 337.983 426.743 342.89 423.712 347.386C419.571 353.529 414.553 359.32 409.609 364.83C400.944 374.487 390.533 383.5 380.644 391.927C367.432 403.185 353.075 413.898 344.384 429.358C337.723 441.207 335.798 458.312 332.608 471.528C330.048 482.14 327.11 492.648 324.309 503.197C321.706 513.001 319.401 522.687 315.699 532.162C313.105 538.8 309.633 545.331 306.431 551.708Q304.513 555.436 302.361 559.033Q300.208 562.631 297.831 566.084Q295.453 569.537 292.86 572.831Q290.266 576.124 287.468 579.246C278.81 588.755 262.736 602.854 257.279 614.138C255.194 618.449 254.69 624.272 254.978 629.038C255.263 633.76 256.662 637.372 260.36 640.444C267.662 646.509 278.848 645.431 287.593 644.386C299.907 642.915 318.281 635.669 325.943 625.363C333.941 614.604 334.171 583.22 335.283 569.384L338.067 536.813C338.58 530.698 338.306 519.897 341.597 514.62L342.057 514.662C343.074 516.972 343.309 519.478 343.41 521.982C343.726 529.828 343.142 537.854 343.105 545.727C343.042 559.154 343.317 572.625 342.981 586.044C342.366 610.598 341.109 635.433 342.637 659.973C343.229 669.479 345.712 679.055 347.949 688.289C351.491 702.907 355.57 717.376 359.207 731.964C364.456 753.013 368.435 774.872 375.092 795.5C378.352 805.601 382.587 815.868 387.888 825.083C393.001 833.969 402.958 844.062 412.676 847.8C419.739 850.518 427.212 850.661 434.671 850.593C435.35 849.452 436.53 847.912 436.969 846.694C438.167 843.364 435.952 832.728 435.445 828.78C434.016 817.653 433.952 806.145 433.33 794.936Q430.706 752.125 429.541 709.249C428.719 672.46 429.049 635.707 428.912 598.919C428.9 595.605 428.159 577.562 429.071 575.865C429.455 575.151 429.946 574.936 430.687 574.75C432.486 574.3 434.343 574.218 435.93 575.162C436.703 576.529 437.005 577.672 437.183 579.236C437.716 583.911 437.323 588.909 437.435 593.632C437.619 601.381 438.066 609.175 438.305 616.937L441.207 707C442.677 745.379 445.504 857.468 465.738 883.607C470.349 889.563 479.894 892.652 486.894 894.59C494.259 896.629 501.596 896.426 508.358 892.568C512.742 890.066 516.596 886.239 519.743 882.332C523.526 874.544 526.992 866.612 528.191 857.973C531.173 836.468 528.816 807.252 527.652 785.293C525.833 750.994 524.111 716.775 522.91 682.446C522.472 669.933 521.684 657.462 521.595 644.936C521.509 632.78 522.134 620.544 522.637 608.397C523.052 598.35 523.219 587.933 524.835 578.004C525.712 572.609 527.286 567.118 528.778 561.858C530.022 557.474 531.434 550.841 534.78 547.583C536.127 547.313 537.257 547.512 538.591 547.715C539.529 548.436 539.577 548.617 539.728 549.854C540.929 559.666 536.268 571.68 534.945 581.603C533.826 590.002 533.874 598.828 533.605 607.311C533.089 623.62 533.589 639.926 534.051 656.228Q535.989 711.951 540.033 767.561Q541.471 789.172 543.178 810.762C544.058 820.849 544.785 831.622 547.427 841.422C549.36 848.591 552.787 854.9 558.591 859.662C565.23 865.108 573.06 867.16 581.57 866.241C589.135 865.424 595.757 862.497 600.634 856.439C603.576 852.784 605.202 848.609 606.032 844.025C607.166 837.757 606.861 830.705 606.946 824.336L607.148 789.519C607.228 757.567 608.178 725.287 607.079 693.371L605.222 647.758C604.83 639.835 604.022 631.953 603.771 624.018C603.421 612.962 603.845 601.843 604.318 590.794C604.653 582.982 604.963 574.982 606.186 567.25C607.514 558.854 610.885 550.99 614.376 543.294C616.025 539.658 618.332 533.629 622.794 533.051C624.068 533.554 624.407 533.602 624.978 534.956C627.913 541.925 620.625 557.062 618.714 564.196C616.893 570.999 615.241 578.758 614.894 585.821C613.864 606.782 615.095 628.057 616.146 648.998Q617.322 676.559 618.993 704.093C620.021 720.819 620.379 746.227 624.325 761.613C629.123 766.783 634.714 768.084 641.563 768.316C647.956 768.532 653.365 767.76 658.147 763.109C663.578 757.828 666.946 750.453 668.535 743.134C671.839 727.908 670.53 709.518 670.546 693.878L670.523 629.498C670.446 618.222 669.203 606.973 669.643 595.69C669.962 587.511 671.276 579.397 671.761 571.224C673.445 542.828 673.87 502.662 668.188 474.888C664.875 458.695 659.396 442.406 653.197 427.101C649.306 417.497 644.357 407.6 641.678 397.593C639.394 389.064 638.418 378.832 637.802 370.01L640.324 366.32C641.641 369.097 642.888 372.759 645.312 374.709C648.363 375.162 651.247 373.107 653.599 371.38C661.778 365.373 669.547 357.748 676.916 350.774Q687.6 340.793 697.72 330.24Q707.839 319.686 717.362 308.592Q726.885 297.498 735.784 285.897Q744.683 274.296 752.93 262.223C757.697 255.215 762.901 247.913 766.394 240.169C771.442 228.975 773.219 214.491 774.988 202.316C777.954 181.899 773.404 146.627 760.574 129.837C758.708 127.395 756.998 126.654 754.098 125.88C753.291 124.903 751.984 122.697 750.643 122.719C750.236 122.726 749.311 122.967 748.896 123.066C745.032 121.872 741.422 119.998 737.577 118.754C728.365 115.774 716.539 115.213 706.924 115.699Z"/>
</svg>
