<?xml version="1.0" encoding="utf-8" ?>
<svg xmlns="http://www.w3.org/2000/svg" xmlns:xlink="http://www.w3.org/1999/xlink" width="1000" height="1000">
	<path fill="#070707" transform="scale(0.976562 0.976562)" d="M284.042 125.983Q284.47 125.138 284.949 124.321C289.272 117.011 298.888 114.707 306.501 112.841C300.04 117.772 293.14 122.051 286.665 126.936C281.244 131.025 277.831 136.141 274.263 141.841C263.965 158.294 259.818 173.412 254.211 191.614C251.738 199.638 248.312 208.195 247.115 216.52C243.917 227.644 242.589 239.241 241.657 250.756C238.323 291.973 246.091 318.638 265.834 354.406C270.821 363.441 276.291 372.432 282.239 380.865C287.206 387.907 293.28 393.99 298.391 400.89C301.915 405.649 305.162 410.604 308.738 415.328C314.947 423.533 321.5 431.451 327.84 439.549C330.768 443.289 333.178 447.585 336.285 451.15C338.056 453.183 340.115 455.162 342.732 455.975C344.278 455.491 344.829 454.846 345.873 453.579C348.356 450.568 350.037 446.927 352.213 443.703C354.952 439.647 358.342 435.855 361.53 432.142C368.243 424.321 376.07 416.74 383.94 410.075C389.448 405.41 395.484 401.348 402.088 398.405C414.972 392.666 429.127 390.683 442.238 385.85C450.866 382.671 459.384 378.842 467.76 375.039C473.057 372.634 478.248 370.031 483.815 368.276C487.79 367.023 498.705 364.15 502.516 365.329L503.138 366.221C502.388 367.74 500.278 368.435 498.871 369.279C494.32 372.013 486.557 372.058 481.202 374.221C468.736 379.258 457.218 386.255 444.617 391.079C430.425 396.512 414.824 398.372 401.054 404.598C392.428 408.498 387.591 415.167 381.133 421.73C377.667 425.252 373.673 428.226 370.176 431.719C363.75 438.137 357.004 447.92 354.715 456.82C351.11 470.835 354.86 482.23 356.193 495.7C357.221 506.074 356.228 518.532 353.537 528.618C352.036 534.246 347.824 539.373 344.787 544.316Q336.406 558.116 327.719 571.725C320.78 582.572 311.909 594.273 307.953 606.597C305.855 613.136 305.233 622.445 307.156 629.048C310.97 642.148 320.152 656.72 326.828 668.855C329.651 673.986 332.738 679.077 334.659 684.636C340.554 701.694 336.771 728.439 345.79 743.052C350.843 751.239 368.187 764.09 376.405 770.438C379.722 773.001 383.287 775.354 386.245 778.341C393.209 785.373 398.379 794.762 402.961 803.497C406.079 809.438 408.897 815.447 413.526 820.408C416.031 823.091 419.109 825.364 421.96 827.674C426.107 831.035 430.22 834.621 434.651 837.6C442.584 842.934 451.436 847.149 459.913 851.549C486.189 865.186 512.915 876.61 540.391 887.515C549.188 891.007 557.589 895.941 566.919 897.904C573.458 899.279 584.885 900.789 590.681 896.726C599.684 890.413 607.524 868.161 613.448 858.038L613.386 852.675C610.086 851.049 596.988 853.542 592.595 854.063Q587.028 854.741 581.424 854.985Q575.821 855.229 570.216 855.036Q564.611 854.843 559.038 854.215Q553.464 853.587 547.957 852.528C522.23 847.381 498.61 836.89 474.341 827.389C454.938 819.793 434.822 812.706 414.878 806.629C414.099 805.475 413.263 804.327 412.534 803.142C412.431 800.554 411.701 796.494 413.517 794.415C414.585 793.192 416.931 793.14 418.436 793.161C430.556 793.327 443.493 799.612 454.771 803.756C486.87 815.55 545.455 840.405 578.377 841.543C592.601 842.035 606.655 839.502 617.316 829.399C619.422 827.403 621.33 825.153 622.708 822.589C629.872 809.254 637.744 773.467 638.075 758.296C638.108 756.764 637.998 755.355 637.655 753.862C636.833 753.075 635.345 752.835 634.174 752.975C631.927 753.244 628.223 759.319 625.774 760.836C616.99 766.275 605.588 770.191 595.249 770.916C581.857 771.855 567.689 770.688 554.758 767.162C543.524 764.098 533.262 759.326 522.645 754.655Q508.597 748.418 494.337 742.682C472.388 733.822 450.125 725.899 428.251 716.814C416.272 711.838 404.547 707.02 393.402 700.312C391.513 699.175 388.671 697.94 388.081 695.658C387.66 694.029 387.456 690.198 388.457 688.806C389.215 687.752 390.155 686.94 391.464 686.735C393.113 686.476 411.524 694.829 414.543 696.053C443.73 707.892 473.328 718.822 502.339 731.078C522.848 739.742 546.687 753.628 568.149 758.14C585.338 761.754 612.009 763.836 625.096 749.145C628.676 745.127 630.811 739.804 632.647 734.811C640.259 714.108 639.987 696.718 639.877 675.176C638.03 672.127 636.174 667.658 632.538 666.468C628.709 665.216 623.238 668.135 619.256 668.548C611.894 669.311 602.79 669.56 595.655 667.661C583.922 664.539 571.302 660.484 560.411 655.19C548.414 649.357 537.033 641.919 525.587 635.064C508.024 624.545 489.938 614.351 473.148 602.644C463.354 595.816 454.264 588.075 444.862 580.736C440.445 577.288 434.666 574.403 431.592 569.604C430.787 568.348 430.585 567.386 430.831 565.905C431.544 564.815 432.114 564.08 433.443 563.742C438.667 562.413 446.855 569.238 450.773 572.132C460.992 579.681 469.993 588.757 480.472 596.108C488.889 602.014 498.926 606.014 507.802 611.274C525.381 621.693 542.505 633.965 560.846 642.941C570.871 647.848 581.728 651.583 592.466 654.623C599.785 656.695 608.623 658.885 616.277 657.761C626.981 656.189 639.27 642.452 645.22 634.092Q648.002 630.112 650.334 625.854Q652.667 621.596 654.524 617.109C661.687 600.113 677.878 548.102 674.796 530.686C673.145 521.352 668.213 516.948 660.774 511.826C653.496 506.815 645.271 502.626 638.468 496.996L632.016 497.008C631.737 502.96 632.742 505.887 636.091 510.768C636.082 512.918 636.388 515.572 635.769 517.616C634.389 517.528 633.356 517.704 632.241 516.772C628.249 513.431 624.692 508.508 621.026 504.716C614.302 497.761 607.021 491.175 599.728 484.826C591.441 477.611 582.613 471.129 573.858 464.504C555.934 450.94 536.896 435.875 515.737 427.737C508.959 425.13 501.961 423.275 494.901 421.617C490.3 420.536 485.138 419.842 480.801 417.954C480.181 417.246 479.723 417.05 479.681 416.082C479.946 416.156 480.21 416.234 480.476 416.304C483.876 417.2 488.164 416.943 491.739 417.16C500.435 417.689 508.76 418.935 516.988 421.915C522.628 423.957 528.032 426.86 533.458 429.409C539.875 432.424 546.458 435.268 552.742 438.547C556.177 440.339 559.076 443.334 562.831 444.495C567.894 446.062 572.399 443.733 577.394 443.307C581.913 442.922 586.936 443.109 591.418 443.817C612.855 447.203 657.209 480.375 668.758 499.022C687.452 529.205 680.8 553.028 673.008 585.263C669.347 600.411 663.744 614.394 659.408 629.229C651.93 654.819 644.248 694.882 651.729 720.809C652.967 725.1 655.005 729.016 657.314 732.82C662.956 742.113 669.197 750.52 680.282 753.197C686.688 754.744 694.87 755.689 700.779 752.201C712.993 744.992 729.718 701.917 737.845 687.706C750.849 664.97 776.926 634.874 782.837 609.782C784.892 601.058 785.858 591.28 785.039 582.342C784.517 576.648 782.706 570.954 781.414 565.393C776.728 545.226 770.666 525.312 765.276 505.318C762.779 496.056 759.455 486.8 759.466 477.128C759.35 476.995 759.232 476.863 759.118 476.728C754.584 471.334 751.835 463.786 748.456 457.61C741.073 444.115 720.762 410.415 709.807 401.882C698.885 393.375 692.003 394.743 679.899 391.059C678.216 390.546 679.476 390.308 678.673 389.654C676.337 387.75 625.171 375.755 619.421 374.662C596.634 370.329 573.138 368.637 550.883 361.802C531.688 355.907 513.302 343.852 496.075 333.8C483.717 326.589 468.252 319.043 459.998 306.9C474.123 314.724 488.567 322.381 502.263 330.916L508.438 327.12C508.46 326.899 508.485 326.677 508.505 326.455C509.663 313.613 503.705 279.003 499.488 266.776C495.237 254.45 488.395 242.589 482.332 231.071C476.647 220.271 471.408 208.868 465.215 198.366C460.382 190.17 453.797 181.603 447.672 174.335C445.159 171.352 442.018 168.398 440.06 165.045L440.165 164.467C440.921 164.269 442.208 164.121 442.861 163.762C443.779 163.258 443.835 161.981 445.05 162.188C451.458 171.209 460.413 177.746 466.924 186.556C468.34 188.471 467.387 189.95 468.331 191.855C470.602 196.444 474.199 200.439 476.767 204.881C479.52 209.644 481.383 214.859 483.93 219.656C484.915 221.511 487.39 222.074 488.505 223.796C491.775 228.848 493.796 234.897 496.919 240.086C498.092 242.036 501.266 244.379 501.749 246.393C500.938 246.641 500.135 246.895 499.337 247.179C503.187 253.912 506.882 260.719 509.264 268.137C511.715 275.769 511.503 282.782 512.822 290.496C513.205 292.738 514.523 294.74 515.039 296.988C517.558 307.961 520.771 324.934 520.62 335.958C522.107 337.934 523.502 339.531 524.095 341.987C530.303 343.82 535.848 344.778 540.296 349.853C543.167 350.278 546.135 349.948 548.949 350.477C557.713 352.122 571.868 357.352 581.072 360.252L581.034 360.487L580.395 360.485C578.632 360.49 577.233 360.604 575.539 361.086L575.259 361.739C578.157 363.372 588.792 362.549 592.677 362.826C604.602 363.679 619.793 365.588 631.319 368.742C631.279 369.024 631.234 369.305 631.199 369.588C631.168 369.848 631.147 370.11 631.121 370.371C634.303 370.517 637.088 368.281 639.91 370.575L640.064 371.77C647.954 373.49 666.583 376.699 673.115 380.343C674.754 381.258 675.737 383.465 677.15 384.239C682.046 386.924 693.106 385.655 696.857 387.484C697.736 387.913 698.531 389 699.149 389.743C704.471 391.627 709.456 391.962 714.534 394.825C718.611 397.124 719.227 400.61 722.052 403.808C723.984 405.994 726.54 407.557 728.554 409.663C732.517 413.804 735.434 419.654 738.377 424.58C738.279 425.581 738.218 425.757 737.734 426.573C738.98 427.874 740.44 427.017 741.507 428.027C746.965 433.193 751.968 441.626 754.442 448.766L754.066 451.007C754.533 451.634 754.97 452.181 755.56 452.699C758.436 455.222 764.055 469.436 764.184 473.345C764.22 474.424 764.306 474.036 763.832 474.868C762.92 474.583 762.398 474.64 761.83 473.84C762.788 477.165 765.646 478.731 766.785 481.786C768.738 487.022 767.032 493.13 768.437 498.418C770.941 507.85 776.878 518.213 780.376 527.467C783.069 534.594 784.471 542.729 786.07 550.168C786.937 554.204 788.355 559.017 788.21 563.124L786.751 562.876C786.459 563.971 786.545 563.893 787.113 564.809C787.548 565.511 788.089 566.111 788.604 566.754C793.093 572.35 793.289 600.509 792.468 608.32C792.419 608.79 792.323 609.254 792.241 609.72L791.613 606.589C789.774 608.39 789.269 623.368 787.297 627.79C785.172 632.555 780.501 635.958 777.375 640.018C773.853 644.59 771.29 649.988 767.953 654.715C766.554 656.695 764.211 657.855 762.959 659.841C759.6 665.167 756.81 675.844 750.541 677.995C747.674 683.303 740.882 700.66 736.86 703.557L735.376 703.776C734.96 706.574 735.049 709.679 734.351 712.395C733 717.643 729.056 723.425 726.415 728.19L724.918 728.656C724.677 730.064 724.657 731.074 724.781 732.496C725.417 739.826 718.073 745.723 718.045 752.754C718.04 753.899 717.794 754.762 717.083 755.666C716.895 755.666 716.706 755.662 716.518 755.666C711.631 755.759 705.565 766.544 698.368 767.666C696.181 768.007 675.372 764.89 671.756 764.26C671.08 763.391 670.932 762.89 670.623 761.855C665.985 758.174 662.368 760.585 657.431 754.521C656.567 753.46 655.718 753.631 654.456 753.516C652.045 755.205 651.105 762.999 650.595 765.876C649.197 773.743 649.981 781.298 646.636 788.737C646.869 785.098 647.112 781.475 647.112 777.827C644.368 787.775 646.493 801.889 644.039 808.721C643.582 809.992 642.442 811.149 641.569 812.158C640.655 818.324 639.961 824.983 638.147 830.951C633.666 845.698 626.264 860.3 620.106 874.463C616.348 883.106 612.954 893.052 608.073 901.067C606.042 904.403 598.141 912.175 594.959 915.166C593.489 915.052 593.772 914.401 592.72 914.123C590.606 913.563 583.337 916.879 581.625 918.229C576.03 917.81 565.453 918.455 560.676 916.86C558.566 916.155 556.935 914.255 554.767 913.745C553.273 913.393 553.347 914.979 551.395 914.086C547.818 912.45 547.059 910.054 542.791 910.641C541.194 910.861 539.732 910.798 538.314 909.928C536.974 909.105 536.298 907.221 535.607 905.845C533.148 904.319 530.664 906.192 528.352 905.273C526.249 904.438 525.252 901.923 522.729 901.105C513.533 898.122 503.713 895.502 494.054 894.922C493.164 893.77 492.914 892.949 491.47 892.601C489.41 892.103 487.791 890.105 486.028 888.968C481.557 886.084 476.668 885.355 471.506 884.721C467.841 881.001 463.498 880.949 459.2 878.548C454.646 876.005 450.907 871.31 446.183 869.208C442.43 867.538 438.173 868.916 434.721 866.351C432.774 864.904 431.901 862.132 430.003 860.82C428.852 860.024 427.307 860.823 426.872 859.102C426.538 857.777 427.248 857.428 426.371 855.938C420.844 852.979 413.723 853.616 410.56 847.961C390.626 838.899 393.039 822.826 383.097 807.205C378.807 800.464 373.255 797.527 369.261 789.62C361.945 787.244 361.387 783.804 356.122 779.271C354.087 777.519 351.285 776.741 349.147 775.102C342.022 769.639 330.93 756.502 326.911 748.675C325.576 746.076 324.966 743.2 323.677 740.663C322.562 738.469 320.865 737.048 320.433 734.506L320.266 733.552C317.87 719.416 320.856 704.836 317.006 690.764C313.693 678.655 309.446 675.057 303.909 664.459C301.044 658.977 300.169 653.965 298.212 648.241C297.06 644.873 293.802 642.551 292.676 639.173C288.878 627.771 290.116 605.25 296.802 594.95C296.987 594.665 297.256 594.354 297.465 594.099C298.338 593.995 297.921 593.951 298.72 594.205C299.421 591.635 298.505 588.736 299.431 586.297C303.03 576.819 331.947 538.493 339.82 531.316C340.474 530.72 341.117 530.115 341.779 529.527C344.388 513.512 345.084 496.036 341.63 480.047C338.627 477.283 337.503 473.76 335.038 470.639C331.758 466.489 327.938 462.72 324.477 458.714C319.19 452.593 314.18 446.045 309.432 439.497C304.851 433.178 300.198 422.318 294.17 418.08C289.855 415.047 288.163 407.997 285.598 403.474C283.598 399.946 280.933 396.794 278.692 393.416C276.952 390.792 275.488 387.701 273.506 385.279C272.634 384.215 271.463 383.342 270.363 382.527C269.386 379.556 268.469 376.548 267.413 373.605C263.478 372.422 261.598 371.162 259.692 367.436C258.102 364.324 257.281 360.747 256.017 357.485C255.235 355.465 248.175 341.734 247.434 341.18C247.043 340.888 245.884 340.111 245.637 339.655C244.502 337.556 244.122 333.532 243.39 331.113C241.588 325.155 238.946 319.865 238.087 313.612C237.56 309.778 237.836 305.408 236.743 301.737C235.319 301.658 234.952 301.838 233.909 300.896C231.727 293.367 233.905 251.163 235.811 242.44C235.986 245.673 235.486 249.853 236.198 252.915C237.602 248.848 238.131 241.366 239.352 236.436C238.787 235.649 239.134 236.014 238.278 235.375L237.728 236.352L237.257 236.379L238.34 235.446C238.219 235.272 238.082 235.109 237.975 234.926C236.631 232.608 239.178 220.94 240.024 218.205C240.363 217.109 240.6 216.592 241.598 215.97C241.634 216.14 241.666 216.312 241.707 216.481C241.898 217.278 241.811 216.983 242.253 217.79L243.146 217.004C242.963 215.295 241.478 214.658 241.474 213.313C241.453 206.7 246.193 199.886 248.066 193.726C249.695 188.367 249.673 175.672 253.798 171.952C254.399 171.41 254.723 171.674 255.445 171.776C257.178 169.948 258.535 159.58 260.106 156.311C261.739 152.915 264.24 150.063 266.724 147.275C266.701 146.004 266.813 145.263 267.337 144.083C270.815 136.245 275.777 128.993 284.042 125.983Z"/>
</svg>
