<?xml version="1.0" encoding="utf-8" ?>
<svg xmlns="http://www.w3.org/2000/svg" xmlns:xlink="http://www.w3.org/1999/xlink" width="1024" height="1024">
	<path d="M139.981 157.75L333.334 157.548C349.463 191.448 363.818 226.251 378.691 260.715L425.596 367.084C434.144 349.107 441.806 330.632 449.844 312.414L490.642 220.379L507.685 182.691C511.381 174.4 514.444 165.92 519.212 158.148L677.832 158.368C707.396 158.343 736.98 157.58 766.541 158.153Q757.205 178.8 747.345 199.201C742.293 209.53 737.013 219.703 732.48 230.278C740.137 232.181 748.421 232.101 756.236 233.436Q764.513 234.851 772.66 236.886Q780.807 238.92 788.778 241.562Q796.748 244.203 804.498 247.438Q812.247 250.672 819.731 254.48Q821.775 255.539 823.799 256.636Q825.823 257.733 827.826 258.868Q829.829 260.002 831.811 261.174Q833.793 262.346 835.752 263.554Q837.712 264.763 839.649 266.007Q841.585 267.252 843.499 268.533Q845.412 269.813 847.301 271.129Q849.19 272.445 851.054 273.796Q852.918 275.147 854.757 276.532Q856.595 277.918 858.408 279.337Q860.22 280.757 862.006 282.21Q863.792 283.663 865.55 285.149Q867.309 286.635 869.039 288.153Q870.77 289.671 872.471 291.222Q874.173 292.772 875.846 294.354Q877.519 295.936 879.162 297.549Q880.804 299.161 882.417 300.805Q884.03 302.448 885.611 304.12Q887.193 305.793 888.743 307.495Q890.293 309.197 891.812 310.928Q893.33 312.658 894.816 314.417Q896.302 316.175 897.754 317.961Q899.207 319.747 900.626 321.56Q902.046 323.373 903.431 325.211Q904.816 327.05 906.167 328.915Q907.518 330.779 908.833 332.668Q910.149 334.557 911.43 336.47Q912.71 338.384 913.954 340.32Q915.199 342.257 916.407 344.217Q917.615 346.177 918.787 348.158Q919.958 350.14 921.093 352.144Q922.227 354.147 923.324 356.171C934.547 377.178 942.732 399.402 950.877 421.728C956.901 438.239 963.088 454.744 968.519 471.462C901.058 472.799 833.574 470.808 766.118 472.46C764.535 455.413 758.689 437.457 746.072 425.331C729.099 409.018 706.105 408.456 683.982 408.449Q668.832 408.394 653.685 408.666C666.685 416.792 679.346 425.577 692.107 434.083Q739.159 465.453 785.771 497.472C793.258 502.538 823.927 521.191 827.556 525.78C833.278 533.014 840.84 550.951 845.287 559.923C854.136 577.778 863.323 595.48 872.396 613.221Q895.51 658.065 917.342 703.546C926.576 722.836 935.465 742.327 945.237 761.35C915.552 742.25 886.32 722.631 856.357 703.933C844.974 727.737 832.466 750.563 813.768 769.498Q812.186 771.11 810.57 772.688Q808.955 774.267 807.306 775.81Q805.657 777.354 803.976 778.862Q802.294 780.37 800.582 781.842Q798.869 783.314 797.125 784.75Q795.381 786.185 793.608 787.584Q791.834 788.982 790.031 790.342Q788.228 791.702 786.396 793.024Q784.565 794.346 782.706 795.628Q780.846 796.911 778.96 798.153Q777.074 799.396 775.162 800.599Q773.251 801.801 771.313 802.963Q769.377 804.124 767.415 805.244Q765.454 806.365 763.47 807.443Q761.485 808.521 759.478 809.557Q757.471 810.593 755.443 811.587Q753.414 812.58 751.365 813.53Q749.316 814.48 747.247 815.386Q745.178 816.292 743.091 817.154Q741.003 818.016 738.898 818.834Q736.792 819.651 734.67 820.424Q732.548 821.197 730.409 821.924Q728.271 822.652 726.118 823.334Q723.965 824.016 721.798 824.652Q719.631 825.288 717.451 825.878Q715.27 826.468 713.078 827.012Q710.886 827.556 708.683 828.053Q706.479 828.55 704.266 829Q702.053 829.45 699.831 829.853Q697.608 830.256 695.378 830.612Q693.147 830.967 690.91 831.276Q688.673 831.584 686.429 831.845C659.17 834.841 631.311 833.658 603.932 833.598L482.012 833.591C479.914 838.733 477.171 843.661 475.016 848.807Q453.271 901.463 428.987 952.998C424.154 942.293 419.771 931.354 415.053 920.592Q392.315 869.073 370.111 817.32L283.171 616.093Q262.902 567.649 242.039 519.458C234.933 502.981 228.968 484.884 218.959 469.91C213.102 461.147 205.275 453.557 198.168 445.798L170.418 415.19C136.431 377.718 102.2 339.228 67.0731 302.945C60.3656 296.016 53.3389 289.403 46.5305 282.573C58.4624 284.035 70.8581 283.183 82.8602 283.109L138.577 282.998C132.777 268.596 124.925 254.575 118.078 240.623L77.8648 157.92C98.5323 157.433 119.302 157.8 139.981 157.75ZM142.7 326.488C150.223 337.356 160.754 345.862 168.601 356.521C171.188 360.035 174.534 364.572 173.854 369.113C191.829 389.88 210.708 409.834 228.834 430.468C234.715 437.163 241.731 443.407 246.653 450.822C253.265 460.781 257.808 474.482 262.523 485.578L289.117 547.953L384.116 767.889L413.067 835.349C418.038 847.131 422.711 862.817 429.952 873.193C433.662 862.641 438.449 852.713 442.918 842.483C448.811 828.993 454.436 815.397 460.527 801.993L612.261 801.806C642.998 801.468 673.156 804.117 703.341 796.563C735.092 788.616 765.598 771.076 788.735 747.979C816.224 720.536 829.722 690.989 835.147 652.85C845.323 657.948 855.35 663.97 865.77 668.495C849.98 639.779 835.055 610.723 820.122 581.556C816.176 573.849 808.645 555.11 803.819 549.438C796.739 541.118 755.029 517.555 742.42 509.085L643.49 442.173C632.394 434.812 621.696 425.971 610.112 419.538C609.951 419.449 609.793 419.355 609.633 419.263C606.418 425.304 604.116 432.132 601.48 438.457Q594.918 454.037 588.1 469.506Q580.576 486.684 572.84 503.767C570.286 509.442 566.41 516.047 565.041 522.109C562.121 531.007 557.483 539.7 553.888 548.379C542.557 575.735 530.526 602.755 518.697 629.897Q510.237 649.336 502.052 668.892C499.351 675.348 496.978 682.731 493.551 688.796C489.395 692.48 452.636 782.817 447.342 795.471C444.435 802.418 440.977 809.193 438.383 816.253L350.997 609.689C345.92 597.462 341.089 585.142 335.868 572.973Q322.699 542.637 309.122 512.482C302.246 496.85 293.758 474.303 284.728 460.529C278.424 450.914 258.082 433.442 249.062 424.841Q217.487 394.174 185.239 364.216C175.743 355.503 165.891 347.182 156.255 338.625C151.855 334.718 147.696 329.535 142.7 326.488Z"/>
	<path fill="#F5524F" d="M142.7 326.488C147.696 329.535 151.855 334.718 156.255 338.625C165.891 347.182 175.743 355.503 185.239 364.216Q217.487 394.174 249.062 424.841C258.082 433.442 278.424 450.914 284.728 460.529C293.758 474.303 302.246 496.85 309.122 512.482Q322.699 542.637 335.868 572.973C341.089 585.142 345.92 597.462 350.997 609.689L438.383 816.253C440.977 809.193 444.435 802.418 447.342 795.471C452.636 782.817 489.395 692.48 493.551 688.796C496.978 682.731 499.351 675.348 502.052 668.892Q510.237 649.336 518.697 629.897C530.526 602.755 542.557 575.735 553.888 548.379C557.483 539.7 562.121 531.007 565.041 522.109C566.41 516.047 570.286 509.442 572.84 503.767Q580.576 486.684 588.1 469.506Q594.918 454.037 601.48 438.457C604.116 432.132 606.418 425.304 609.633 419.263C609.793 419.355 609.951 419.449 610.112 419.538C621.696 425.971 632.394 434.812 643.49 442.173L742.42 509.085C755.029 517.555 796.739 541.118 803.819 549.438C808.645 555.11 816.176 573.849 820.122 581.556C835.055 610.723 849.98 639.779 865.77 668.495C855.35 663.97 845.323 657.948 835.147 652.85C829.722 690.989 816.224 720.536 788.735 747.979C765.598 771.076 735.092 788.616 703.341 796.563C673.156 804.117 642.998 801.468 612.261 801.806L460.527 801.993C454.436 815.397 448.811 828.993 442.918 842.483C438.449 852.713 433.662 862.641 429.952 873.193C422.711 862.817 418.038 847.131 413.067 835.349L384.116 767.889L289.117 547.953L262.523 485.578C257.808 474.482 253.265 460.781 246.653 450.822C241.731 443.407 234.715 437.163 228.834 430.468C210.708 409.834 191.829 389.88 173.854 369.113C174.534 364.572 171.188 360.035 168.601 356.521C160.754 345.862 150.223 337.356 142.7 326.488ZM565.041 522.109C562.121 531.007 557.483 539.7 553.888 548.379C542.557 575.735 530.526 602.755 518.697 629.897Q510.237 649.336 502.052 668.892C499.351 675.348 496.978 682.731 493.551 688.796C506.795 688.352 520.109 688.774 533.366 688.778L610.457 688.778C626.05 688.786 641.837 690.21 657.357 688.343C665.057 687.416 672.524 685.248 679.375 681.581C700.623 670.21 710.137 651.274 716.922 629.073C702.468 619.625 688.64 608.953 674.567 598.934L620.15 560.984C601.782 547.963 583.814 534.567 565.041 522.109Z"/>
	<path d="M565.041 522.109C583.814 534.567 601.782 547.963 620.15 560.984L674.567 598.934C688.64 608.953 702.468 619.625 716.922 629.073C710.137 651.274 700.623 670.21 679.375 681.581C672.524 685.248 665.057 687.416 657.357 688.343C641.837 690.21 626.05 688.786 610.457 688.778L533.366 688.778C520.109 688.774 506.795 688.352 493.551 688.796C496.978 682.731 499.351 675.348 502.052 668.892Q510.237 649.336 518.697 629.897C530.526 602.755 542.557 575.735 553.888 548.379C557.483 539.7 562.121 531.007 565.041 522.109ZM578.803 571.736Q561.204 614.124 542.358 655.972L640.936 656.001C652.315 655.65 663.637 654.988 671.952 646.132C673.677 644.296 675.26 642.201 676.703 640.136L578.803 571.736Z"/>
	<path fill="#FEFEFE" d="M131.283 191.147C147.951 190.693 164.7 191.043 181.375 191.088L255.755 191.051C274.162 191.02 293.141 192.101 311.428 190.068C317.799 202.597 323.231 215.643 328.861 228.518L353.229 284.209L426.428 451.327C431.555 441.662 435.174 430.877 439.427 420.783L464.635 361.787L540.013 190.466C546.879 190.34 553.734 190.927 560.597 190.995L605.848 191.039C640.121 191.046 674.551 190.318 708.809 191.009C710.698 191.047 713.136 190.914 714.828 191.815L714.639 192.848C709.034 206.132 702.607 219.095 696.574 232.19C691.984 242.152 687.814 252.476 682.907 262.269C703.233 262.67 723.784 261.754 744.009 264.13C786.895 269.167 829.737 291.962 859.535 322.896C876.558 340.567 891.522 361.792 901.671 384.166C905.895 393.477 909.287 403.19 912.802 412.785C916.015 421.551 919.744 430.397 921.903 439.488L792.787 439.491C781.09 411.967 769.024 394.556 740.31 383.01C731.823 379.598 722.552 377.458 713.476 376.413C699.375 374.788 685.049 375.687 670.883 375.713C656.621 375.739 642.313 375.183 628.063 375.677C622.262 390.372 615.305 404.718 609.633 419.263C606.418 425.304 604.116 432.132 601.48 438.457Q594.918 454.037 588.1 469.506Q580.576 486.684 572.84 503.767C570.286 509.442 566.41 516.047 565.041 522.109C562.121 531.007 557.483 539.7 553.888 548.379C542.557 575.735 530.526 602.755 518.697 629.897Q510.237 649.336 502.052 668.892C499.351 675.348 496.978 682.731 493.551 688.796C489.395 692.48 452.636 782.817 447.342 795.471C444.435 802.418 440.977 809.193 438.383 816.253L350.997 609.689C345.92 597.462 341.089 585.142 335.868 572.973Q322.699 542.637 309.122 512.482C302.246 496.85 293.758 474.303 284.728 460.529C278.424 450.914 258.082 433.442 249.062 424.841Q217.487 394.174 185.239 364.216C175.743 355.503 165.891 347.182 156.255 338.625C151.855 334.718 147.696 329.535 142.7 326.488C150.223 337.356 160.754 345.862 168.601 356.521C171.188 360.035 174.534 364.572 173.854 369.113C167.072 362.579 160.935 355.146 154.599 348.174Q139.173 331.006 122.976 314.562Q156.709 315.363 190.449 314.991C172.238 277.215 153.389 239.895 136.87 201.315C134.829 197.984 132.962 194.674 131.283 191.147Z"/>
	<path fill="#FE0100" d="M131.283 191.147C147.951 190.693 164.7 191.043 181.375 191.088L255.755 191.051C274.162 191.02 293.141 192.101 311.428 190.068C317.799 202.597 323.231 215.643 328.861 228.518L353.229 284.209L426.428 451.327C431.555 441.662 435.174 430.877 439.427 420.783L464.635 361.787L540.013 190.466C546.879 190.34 553.734 190.927 560.597 190.995L605.848 191.039C640.121 191.046 674.551 190.318 708.809 191.009C710.698 191.047 713.136 190.914 714.828 191.815L714.639 192.848C709.034 206.132 702.607 219.095 696.574 232.19C691.984 242.152 687.814 252.476 682.907 262.269L631.578 262.494C639.715 255.445 647.613 248.16 655.686 241.049C626.456 240.315 597.22 241.056 567.991 240.654C562.084 252.81 556.887 265.34 551.443 277.711Q535.27 313.908 519.795 350.408Q471.628 458.96 426.297 568.726C413.211 540.426 401.731 511.178 389.465 482.5L337.21 363.03Q319.603 322.463 301.376 282.17C295.066 268.111 289.026 253.874 282.319 240.001C256.609 239.7 230.842 239.311 205.139 240.039C213.728 258.947 223.346 277.189 232.509 295.808Q245.123 321.714 256.969 347.981C238.49 347.753 219.85 347.171 201.384 348.043Q233.378 383.434 265.932 418.31L285.408 439.307C290.018 444.278 294.981 449.099 298.806 454.719C304.633 463.279 308.12 474.948 312.163 484.502L336.513 541.527Q382.614 646.512 426.818 752.309C440.264 724.234 450.986 694.675 463.33 666.074Q510.141 554.724 558.471 444.026C568.433 421.186 578.049 398.115 588.425 375.464C601.675 376.101 614.803 376.463 628.063 375.677C622.262 390.372 615.305 404.718 609.633 419.263C606.418 425.304 604.116 432.132 601.48 438.457Q594.918 454.037 588.1 469.506Q580.576 486.684 572.84 503.767C570.286 509.442 566.41 516.047 565.041 522.109C562.121 531.007 557.483 539.7 553.888 548.379C542.557 575.735 530.526 602.755 518.697 629.897Q510.237 649.336 502.052 668.892C499.351 675.348 496.978 682.731 493.551 688.796C489.395 692.48 452.636 782.817 447.342 795.471C444.435 802.418 440.977 809.193 438.383 816.253L350.997 609.689C345.92 597.462 341.089 585.142 335.868 572.973Q322.699 542.637 309.122 512.482C302.246 496.85 293.758 474.303 284.728 460.529C278.424 450.914 258.082 433.442 249.062 424.841Q217.487 394.174 185.239 364.216C175.743 355.503 165.891 347.182 156.255 338.625C151.855 334.718 147.696 329.535 142.7 326.488C150.223 337.356 160.754 345.862 168.601 356.521C171.188 360.035 174.534 364.572 173.854 369.113C167.072 362.579 160.935 355.146 154.599 348.174Q139.173 331.006 122.976 314.562Q156.709 315.363 190.449 314.991C172.238 277.215 153.389 239.895 136.87 201.315C134.829 197.984 132.962 194.674 131.283 191.147Z"/>
	<path fill="#F5524F" d="M131.283 191.147C147.951 190.693 164.7 191.043 181.375 191.088L255.755 191.051C274.162 191.02 293.141 192.101 311.428 190.068C317.799 202.597 323.231 215.643 328.861 228.518L353.229 284.209L426.428 451.327C431.555 441.662 435.174 430.877 439.427 420.783L464.635 361.787L540.013 190.466C546.879 190.34 553.734 190.927 560.597 190.995L605.848 191.039C640.121 191.046 674.551 190.318 708.809 191.009C710.698 191.047 713.136 190.914 714.828 191.815L714.639 192.848C707.807 196.501 701.421 201.579 695.051 205.992Q679.292 216.991 663.184 227.473L559.001 227.471C537.123 274.017 517.559 321.833 497.039 368.992Q474.832 419.33 453.359 469.985C444.192 491.331 434.83 512.567 426.232 534.154Q403.44 478.664 378.926 423.913L326.276 304.211Q316.323 281.556 306.013 259.062C300.914 248.106 295.376 237.449 290.994 226.167C254.632 225.736 218.231 225.895 181.866 226.018Q189.446 240.936 196.722 256.004C200.185 263.356 203.291 271.063 207.18 278.19C202.633 274.143 198.824 268.812 194.773 264.225C185.765 254.026 176.477 244.071 167.382 233.95C161.1 226.958 143.673 204.617 136.87 201.315C134.829 197.984 132.962 194.674 131.283 191.147Z"/>
</svg>
